Coordinates
version=1
nRows=8
nColumns=63
inDegrees=yes

Units are S.I. units (second, meters, Newtons, ...)
If the header above contains a line with 'inDegrees', this indicates whether rotational values are in degrees (yes) or radians (no).

endheader
time	pelvis_tilt	pelvis_list	pelvis_rotation	pelvis_tx	pelvis_ty	pelvis_tz	hip_flexion_r	hip_adduction_r	hip_rotation_r	knee_angle_r	knee_angle_r_beta	ankle_angle_r	subtalar_angle_r	mtp_angle_r	hip_flexion_l	hip_adduction_l	hip_rotation_l	knee_angle_l	knee_angle_l_beta	ankle_angle_l	subtalar_angle_l	mtp_angle_l	L5_S1_Flex_Ext	L5_S1_Lat_Bending	L5_S1_axial_rotation	L4_L5_Flex_Ext	L4_L5_Lat_Bending	L4_L5_axial_rotation	L3_L4_Flex_Ext	L3_L4_Lat_Bending	L3_L4_axial_rotation	L2_L3_Flex_Ext	L2_L3_Lat_Bending	L2_L3_axial_rotation	L1_L2_Flex_Ext	L1_L2_Lat_Bending	L1_L2_axial_rotation	L1_T12_Flex_Ext	L1_T12_Lat_Bending	L1_T12_axial_rotation	Abs_r3	Abs_r2	Abs_r1	Abs_t1	Abs_t2	neck_flexion	neck_bending	neck_rotation	arm_flex_r	arm_add_r	arm_rot_r	elbow_flex_r	pro_sup_r	wrist_flex_r	wrist_dev_r	arm_flex_l	arm_add_l	arm_rot_l	elbow_flex_l	pro_sup_l	wrist_flex_l	wrist_dev_l
      1.25423729	     -0.24411601	     -2.07857146	     95.71459124	      0.16885848	      1.04597617	      0.32000896	     -8.45234457	      2.29463999	      6.97698950	      0.92606133	      0.01616282	     28.95026966	     -8.14447620	      0.00000000	     -8.04391477	     -1.12655347	      6.78399129	      0.44715314	      0.00780429	     29.53833696	     -4.38816853	      0.00000000	     -0.02385460	     -0.05570860	     -0.88675268	     -0.04430037	     -0.07409244	     -0.94217472	     -0.03919072	     -0.13544989	     -0.94217472	     -0.02726342	     -0.13544989	     -0.77590860	     -0.02215138	     -0.11360098	     -0.72048655	     -0.01363052	     -0.08629262	     -0.66506451	     -0.17039100	     -0.63018684	     -4.93185239	      0.00000000	      0.00000000	     15.45617262	     -0.32331909	      0.53273126	      5.56540510	     -3.78230794	     49.81641970	     36.92340789	     37.28862974	      7.09809934	     -1.20722269	      9.03476731	     -3.87838968	     57.25836813	     28.49677065	     71.75658032	      5.23197295	    -13.94655075
      1.27118644	     -0.21851001	     -2.04488181	     95.72853984	      0.16915737	      1.04595028	      0.32025756	     -8.55158348	      2.32323943	      6.97663511	      0.71798547	      0.01253121	     28.62647198	     -8.11662127	      0.00000000	     -8.13299863	     -1.17885007	      6.72900421	      0.38726082	      0.00675898	     29.20843780	     -4.54590372	      0.00000000	     -0.03185689	     -0.06256760	     -0.88578544	     -0.05916144	     -0.08321490	     -0.94114703	     -0.05233769	     -0.15212685	     -0.94114703	     -0.03640924	     -0.15212685	     -0.77506226	     -0.02958231	     -0.12758784	     -0.71970067	     -0.01820303	     -0.09691721	     -0.66433908	     -0.22755061	     -0.70777715	     -4.92647288	      0.00000000	      0.00000000	     15.62926375	     -0.22836038	      0.44740538	      5.51803970	     -3.86174344	     49.79277881	     37.23877191	     37.32719895	      7.25754892	     -1.37498193	      9.10827606	     -3.98501633	     57.08523431	     28.65935692	     71.77576017	      5.16332158	    -14.30395640
      1.28813559	     -0.17211629	     -2.06698410	     95.67538784	      0.16966285	      1.04577559	      0.32064363	     -8.47469458	      2.36105474	      7.18205404	      0.69087843	      0.01205810	     28.68486601	     -8.20806048	      0.00000000	     -8.07337887	     -1.25140259	      7.00027842	      0.39528311	      0.00689899	     29.22797124	     -4.77137559	      0.00000000	     -0.03859924	     -0.07112825	     -0.86279835	     -0.07168265	     -0.09460058	     -0.91672324	     -0.06341469	     -0.17294124	     -0.91672324	     -0.04411507	     -0.17294124	     -0.75494855	     -0.03584325	     -0.14504474	     -0.70102366	     -0.02205561	     -0.11017767	     -0.64709876	     -0.27571051	     -0.80461703	     -4.79862556	      0.00000000	      0.00000000	     16.42620099	      0.07061307	      0.11617576	      5.53281065	     -3.87372259	     49.79774314	     37.41516914	     37.50547641	      7.46506756	     -1.71870169	      9.12572121	     -4.11043866	     56.70727329	     28.85186849	     71.85455561	      4.84450098	    -15.02744258
      1.30508475	     -0.14474676	     -2.06729107	     95.63366580	      0.16992142	      1.04579871	      0.32077322	     -8.44052647	      2.36259176	      7.35882122	      0.65596843	      0.01144881	     28.83302204	     -8.21223119	      0.00000000	     -8.03027817	     -1.30521148	      7.29806903	      0.38011378	      0.00663424	     29.34930586	     -4.67536481	      0.00000000	     -0.02917436	     -0.07650342	     -0.83764728	     -0.05417970	     -0.10174955	     -0.89000024	     -0.04793055	     -0.18601041	     -0.89000024	     -0.03334337	     -0.18601041	     -0.73294137	     -0.02709131	     -0.15600577	     -0.68058842	     -0.01667023	     -0.11850380	     -0.62823546	     -0.20838953	     -0.86542197	     -4.65874289	      0.00000000	      0.00000000	     16.70399778	      0.15315616	      0.03884959	      5.53983419	     -3.84315179	     49.83742895	     37.34646780	     37.57365813	      7.48290465	     -1.77602356	      9.18482214	     -4.13251895	     56.60338631	     28.88069984	     71.88131173	      4.74179337	    -15.16716532
      1.32203390	     -0.17432805	     -2.07756011	     95.57016493	      0.17016866	      1.04579205	      0.32095376	     -8.39023306	      2.29532645	      7.13494364	      0.64609230	      0.01127644	     29.13281586	     -7.66335132	      0.00000000	     -7.96319951	     -1.27899462	      6.97092941	      0.37765277	      0.00659128	     29.62150558	     -4.01361783	      0.00000000	     -0.02720968	     -0.09490313	     -0.81304812	     -0.05053110	     -0.12622116	     -0.86386363	     -0.04470279	     -0.23074747	     -0.86386363	     -0.03109795	     -0.23074747	     -0.71141710	     -0.02526691	     -0.19352646	     -0.66060160	     -0.01554761	     -0.14700495	     -0.60978609	     -0.19435605	     -1.07356318	     -4.52192972	      0.00000000	      0.00000000	     17.40535653	      0.48714975	     -0.43104198	      5.61887623	     -3.71154699	     49.90860071	     36.98380173	     38.70536905	      7.98674358	     -2.61501411	      9.31832093	     -4.21783396	     56.96440030	     28.73464985	     72.56017399	      4.10978994	    -16.26832329
      1.33898305	     -0.17808790	     -1.96991729	     95.39178340	      0.17036278	      1.04595204	      0.32117351	     -8.35686507	      2.22818208	      5.74418824	      0.89362148	      0.01559664	     29.94009554	     -5.32458340	      0.00000000	     -7.97848656	     -1.27368706	      5.74326501	      0.51228597	      0.00894108	     30.14627580	     -2.28948962	      0.00000000	     -0.03783367	     -0.10086876	     -0.77214881	     -0.07026091	     -0.13415545	     -0.82040811	     -0.06215693	     -0.24525230	     -0.82040811	     -0.04324010	     -0.24525230	     -0.67563021	     -0.03513234	     -0.20569157	     -0.62737091	     -0.02161816	     -0.15624570	     -0.57911161	     -0.27024211	     -1.14104756	     -4.29446003	      0.00000000	      0.00000000	     17.75992835	      0.68209105	     -0.43736035	      5.52690941	     -3.64531235	     49.33135514	     37.14304190	     38.89533297	      7.56335713	     -2.30882033	      9.22580259	     -4.35067278	     56.92443043	     29.31491823	     70.38650839	      3.89923796	    -14.92840201
      1.35593220	     -0.26084125	     -2.06220446	     95.25394507	      0.17051958	      1.04575002	      0.32128690	     -8.41648070	      2.12960490	     10.81188014	      0.54099596	      0.00944216	     28.41261133	    -12.16997122	      0.00000000	     -7.93627417	     -1.14585823	      8.16510227	      0.34604101	      0.00603955	     29.41652641	     -5.71296060	      0.00000000	     -0.01535754	     -0.11949313	     -0.73962982	     -0.02852048	     -0.15892587	     -0.78585669	     -0.02523090	     -0.29053561	     -0.78585669	     -0.01755213	     -0.29053561	     -0.64717609	     -0.01426101	     -0.24367040	     -0.60094923	     -0.00877530	     -0.18509487	     -0.55472237	     -0.10969734	     -1.35173023	     -4.11359919	      0.00000000	      0.00000000	     18.03623858	      0.73151151	     -0.65987122	      5.59817587	     -3.61023337	     49.60746676	     37.05139766	     38.74126026	      7.51401419	     -2.74512110	      9.13777010	     -4.26484534	     56.00598546	     28.96686271	     73.02353751	      4.30655738	    -15.55986752
      1.37288136	     -0.35099263	     -2.05835396	     95.12329546	      0.17052308	      1.04582651	      0.32162780	     -8.43956202	      1.99653706	     11.10058374	      0.55159976	      0.00962723	     28.43794908	    -12.30689039	      0.00000000	     -7.92162773	     -1.02145094	      8.24135912	      0.34335726	      0.00599271	     29.24324500	     -5.96113200	      0.00000000	     -0.01202575	     -0.13381342	     -0.70793630	     -0.02233302	     -0.17797185	     -0.75218232	     -0.01975710	     -0.32535396	     -0.75218232	     -0.01374423	     -0.32535396	     -0.61944426	     -0.01116711	     -0.27287233	     -0.57519825	     -0.00687151	     -0.20727699	     -0.53095223	     -0.08589872	     -1.51372422	     -3.93732933	      0.00000000	      0.00000000	     17.96435181	      0.62934071	     -0.89240992	      5.61487169	     -3.58103649	     49.45112208	     37.12083501	     38.52014335	      7.26874514	     -3.02619059	      9.17548924	     -4.25764904	     55.92000291	     28.90098937	     72.61868001	      4.54683702	    -15.36564986
